<?xml version="1.0" encoding="utf-8"?>
<!-- Generator: Adobe Illustrator 19.0.0, SVG Export Plug-In . SVG Version: 6.00 Build 0)  -->
<svg version="1.1" xmlns="http://www.w3.org/2000/svg" xmlns:xlink="http://www.w3.org/1999/xlink" x="0px" y="0px"
	 viewBox="0 0 128 128" enable-background="new 0 0 128 128" xml:space="preserve">
<g id="guide" display="none">
	
		<line id="XMLID_2_" display="inline" fill="none" stroke="#A0A0A0" stroke-miterlimit="10" x1="21.5" y1="35.9" x2="98.5" y2="80.1"/>
	
		<line id="XMLID_3_" display="inline" fill="none" stroke="#A0A0A0" stroke-miterlimit="10" x1="98.5" y1="35.9" x2="21.5" y2="80.1"/>
	<line id="XMLID_4_" display="inline" fill="none" stroke="#A0A0A0" stroke-miterlimit="10" x1="59.5" y1="13" x2="59.5" y2="102"/>
</g>
<g id="Layer_3" display="none">
	
		<line id="XMLID_5_" display="inline" fill="none" stroke="#232323" stroke-miterlimit="10" x1="60.3" y1="25.2" x2="98.5" y2="47"/>
	<line id="XMLID_7_" display="inline" fill="none" stroke="#232323" stroke-miterlimit="10" x1="30.5" y1="42" x2="30.5" y2="76"/>
	<polyline id="XMLID_14_" display="inline" fill="none" stroke="#232323" stroke-miterlimit="10" points="60.3,93.3 30.5,76.1 
		30.5,43 60.3,25.2 30.5,42.9 	"/>
	
		<line id="XMLID_12_" display="inline" fill="none" stroke="#232323" stroke-miterlimit="10" x1="67.5" y1="62" x2="49.2" y2="51.8"/>
	<polyline id="XMLID_13_" display="inline" fill="none" stroke="#232323" stroke-miterlimit="10" points="49.5,62 49.5,52 49.5,62 
		60.2,67.9 	"/>
	<polyline id="XMLID_19_" display="inline" fill="none" stroke="#232323" stroke-miterlimit="10" points="60.2,67.9 60.3,93.3 
		60.2,66.9 	"/>
	<polyline id="XMLID_8_" display="inline" fill="none" stroke="#232323" stroke-miterlimit="10" points="89.5,42 90.5,75.5 67.5,62 
		67.5,99 67.5,62 	"/>
	
		<line id="XMLID_6_" display="inline" fill="none" stroke="#232323" stroke-miterlimit="10" x1="73.2" y1="74.6" x2="91.5" y2="85.7"/>
	<polyline id="XMLID_9_" display="inline" fill="none" stroke="#232323" stroke-miterlimit="10" points="73.5,95 73.5,75 73.5,95 	
		"/>
</g>
<g id="Layer_4" display="none">
	<polygon id="XMLID_10_" display="inline" fill="none" stroke="#BC3939" stroke-miterlimit="10" points="59.5,103 59.5,103.3 
		98.5,81.1 98.5,37 60,14.7 21.3,36.7 21.5,81 	"/>
</g>
<g id="Layer_5" display="none">
</g>
<g id="hex">
	<g id="XMLID_1_">
		<path id="XMLID_15_" fill="none" stroke="#000000" stroke-width="2" stroke-miterlimit="10" d="M114.7,48.5L64.8,20.3L26,43.5
			v42.9l39,22.4V78.5c-4-2.6-9-5.2-15-7.8c0-5.2,0-10.4,0-15.6c19,10.2,37,20.4,54,30.6c0-14.5,0-43.7,0-43.7"/>
		<line id="XMLID_16_" fill="none" stroke="#000000" stroke-width="2" stroke-miterlimit="10" x1="74" y1="116" x2="74" y2="68"/>
		<path id="XMLID_11_" fill="none" stroke="#000000" stroke-width="2" stroke-miterlimit="10" d="M83,111V86.3
			c8,4.2,13.7,8.4,20.6,12.5"/>
		<polygon id="XMLID_17_" fill="none" stroke="#000000" stroke-width="2" stroke-miterlimit="10" points="14,35.5 64,6.7 114,35.5 
			114,93 64,121.8 14,93 		"/>
		<polygon id="XMLID_18_" fill="none" stroke="#000000" stroke-width="2" stroke-miterlimit="10" points="114,35.4 64,6.7 14,35.5 
			14,92.8 64,121.8 114,93 		"/>
	</g>
</g>
</svg>
