<?xml version="1.0" encoding="UTF-8" standalone="no"?>
<!-- Created with Inkscape (http://www.inkscape.org/) -->

<svg
   xmlns:dc="http://purl.org/dc/elements/1.1/"
   xmlns:cc="http://creativecommons.org/ns#"
   xmlns:rdf="http://www.w3.org/1999/02/22-rdf-syntax-ns#"
   xmlns:svg="http://www.w3.org/2000/svg"
   xmlns="http://www.w3.org/2000/svg"
   xmlns:sodipodi="http://sodipodi.sourceforge.net/DTD/sodipodi-0.dtd"
   xmlns:inkscape="http://www.inkscape.org/namespaces/inkscape"
   width="700px"
   height="700px"
   viewBox="0 0 744.09448819 1052.3622047"
   id="svg2"
   version="1.1"
   inkscape:version="0.91 r13725"
   sodipodi:docname="drawing.svg">
  <defs
     id="defs4">
    <inkscape:path-effect
       effect="spiro"
       id="path-effect4137"
       is_visible="true" />
    <inkscape:perspective
       sodipodi:type="inkscape:persp3d"
       inkscape:vp_x="411.06697 : 14.354775 : 0"
       inkscape:vp_y="572.14587 : 820.15188 : 0"
       inkscape:vp_z="-3.1658396 : 411.30538 : 0"
       inkscape:persp3d-origin="-323.6559 : -110.15011 : 1"
       id="perspective3361" />
  </defs>
  <sodipodi:namedview
     id="base"
     pagecolor="#ffffff"
     bordercolor="#666666"
     borderopacity="1.0"
     inkscape:pageopacity="0.0"
     inkscape:pageshadow="2"
     inkscape:zoom="0.90509668"
     inkscape:cx="723.28569"
     inkscape:cy="315.78159"
     inkscape:document-units="px"
     inkscape:current-layer="layer1"
     showgrid="false"
     inkscape:snap-global="true"
     inkscape:window-width="2560"
     inkscape:window-height="1383"
     inkscape:window-x="0"
     inkscape:window-y="27"
     inkscape:window-maximized="1" />
  <metadata
     id="metadata7">
    <rdf:RDF>
      <cc:Work
         rdf:about="">
        <dc:format>image/svg+xml</dc:format>
        <dc:type
           rdf:resource="http://purl.org/dc/dcmitype/StillImage" />
        <dc:title />
      </cc:Work>
    </rdf:RDF>
  </metadata>
  <g
     inkscape:label="Layer 1"
     inkscape:groupmode="layer"
     id="layer1">
    <path
       sodipodi:type="star"
       style="fill:#d4aa00"
       id="path4413"
       sodipodi:sides="24"
       sodipodi:cx="369.53966"
       sodipodi:cy="522.04461"
       sodipodi:r1="429.77209"
       sodipodi:r2="505.6142"
       sodipodi:arg1="0.53592851"
       sodipodi:arg2="0.6668282"
       inkscape:flatsided="false"
       inkscape:rounded="0.11"
       inkscape:randomized="0"
       d="m 739.05551,741.50326 c -5.46617,9.20374 34.41015,84.85057 27.78941,93.26209 -6.62074,8.41152 -89.51841,-12.5776 -97.18043,-5.10222 -7.66202,7.47537 11.27671,90.86536 2.7045,97.27668 -8.57221,6.41133 -83.21282,-35.31809 -92.54853,-30.08051 -9.33572,5.23758 -12.62523,90.68782 -22.56472,94.66204 -9.93949,3.97422 -71.23641,-55.65172 -81.60961,-53.00887 -10.37319,2.64285 -35.66676,84.33003 -46.29617,85.59633 -10.62942,1.2663 -54.40537,-72.19277 -65.10913,-72.32476 -10.70376,-0.13198 -56.27768,72.22536 -66.87263,70.69736 -10.59496,-1.528 -33.86669,-83.81399 -44.17156,-86.71181 -10.30488,-2.89782 -73.05336,55.19859 -82.89184,50.98051 -9.83847,-4.21809 -11.02004,-89.72347 -20.22377,-95.18964 -9.20374,-5.46618 -84.850575,34.41015 -93.262091,27.7894 -8.411516,-6.62074 12.577598,-89.5184 5.102224,-97.18043 -7.475375,-7.66202 -90.865361,11.27671 -97.276687,2.7045 -6.411327,-8.5722 35.31809416,-83.21281 30.0805147,-92.54853 -5.2375797,-9.33572 -90.6878247,-12.62522 -94.6620407,-22.56471 -3.97422,-9.93949 55.651722,-71.23642 53.00887,-81.60961 -2.642852,-10.3732 -84.33006,-35.66677 -85.59633,-46.29618 -1.26627,-10.62941 72.192774,-54.40537 72.324755,-65.10912 0.131981,-10.70376 -72.225345,-56.27768 -70.697375,-66.87264 1.52797,-10.59496 83.814012,-33.86668 86.711832,-44.17156 2.89782,-10.30488 -55.198594,-73.05336 -50.980509,-82.89183 4.218085,-9.83848 89.7234618,-11.02004 95.18963925,-20.22378 C 5.4900096,293.38224 -34.386316,217.7354 -27.765574,209.32388 c 6.620742,-8.41151 89.518406,12.5776 97.18043,5.10223 7.662024,-7.47538 -11.276706,-90.86536 -2.7045,-97.27669 8.572206,-6.41133 83.212814,35.31809 92.548534,30.08051 9.33572,-5.23757 12.62522,-90.68782 22.56471,-94.662036 9.93949,-3.974216 71.23642,55.651726 81.60961,53.008866 10.3732,-2.64285 35.66677,-84.33006 46.29618,-85.596328 10.62941,-1.266269 54.40537,72.192776 65.10912,72.324757 10.70376,0.131981 56.27768,-72.225348 66.87264,-70.697376 10.59496,1.527973 33.86668,83.814017 44.17156,86.711837 10.30487,2.89782 73.05336,-55.198598 82.89183,-50.980513 9.83848,4.218085 11.02004,89.723463 20.22378,95.189643 9.20373,5.46617 84.85057,-34.41015 93.26209,-27.78941 8.41151,6.62074 -12.5776,89.51841 -5.10223,97.18043 7.47538,7.66202 90.86536,-11.27671 97.27669,-2.7045 6.41133,8.57221 -35.31809,83.21282 -30.08052,92.54853 5.23758,9.33572 90.68783,12.62523 94.66205,22.56472 3.97421,9.93949 -55.65173,71.23641 -53.00887,81.60961 2.64285,10.37319 84.33006,35.66676 85.59633,46.29617 1.26627,10.62942 -72.19278,54.40537 -72.32476,65.10913 -0.13198,10.70375 72.22535,56.27768 70.69738,66.87263 -1.52798,10.59496 -83.81402,33.86669 -86.71184,44.17156 -2.89782,10.30488 55.1986,73.05336 50.98051,82.89184 -4.21808,9.83847 -89.72346,11.02004 -95.18964,20.22377 z"
       inkscape:transform-center-x="4.516947"
       inkscape:transform-center-y="4.7709943" />
  </g>
</svg>
