<?xml version="1.0" encoding="utf-8"?>
<!-- Generator: Adobe Illustrator 19.0.0, SVG Export Plug-In . SVG Version: 6.00 Build 0)  -->
<svg version="1.1" id="Layer_1" xmlns="http://www.w3.org/2000/svg" xmlns:xlink="http://www.w3.org/1999/xlink" x="0px" y="0px"
	 viewBox="-415 417 128 128" style="enable-background:new -415 417 128 128;" xml:space="preserve">
<style type="text/css">
	.st0{fill:none;stroke:#000000;stroke-width:7;stroke-miterlimit:10;}
</style>
<g id="hex">
	<g id="XMLID_1_">
		<path id="XMLID_15_" class="st0" d="M-300.6,465.3l-49.9-28.2l-38.8,23.2v42.9l37.2,19.8l0.1-28.8c-4-2.6-7.3-4.1-13.3-6.7
			c0-5.2,0-10.4,0-15.6c19,10.2,37,20.4,54,30.6c0-14.5,0-41.7,0-41.7"/>
		<line id="XMLID_16_" class="st0" x1="-341.4" y1="532.8" x2="-341.4" y2="484.8"/>
		<path id="XMLID_11_" class="st0" d="M-327.6,526.8v-21.2c6.2,3.6,10.6,7.2,15.9,10.7"/>
		<polygon id="XMLID_17_" class="st0" points="-401.4,452.3 -351.4,423.5 -301.4,452.3 -301.4,509.8 -351.4,538.5 -401.4,509.8 		
			"/>
	</g>
</g>
</svg>
