<?xml version="1.0" encoding="utf-8"?>
<!-- Generator: Adobe Illustrator 19.0.0, SVG Export Plug-In . SVG Version: 6.00 Build 0)  -->
<svg version="1.1" xmlns="http://www.w3.org/2000/svg" xmlns:xlink="http://www.w3.org/1999/xlink" x="0px" y="0px"
	 viewBox="0 0 128 128" enable-background="new 0 0 128 128" xml:space="preserve">
<g id="hex">
	<g id="XMLID_1_">
		<path id="XMLID_15_" fill="none" stroke="#000000" stroke-width="2" stroke-miterlimit="10" d="M114.7,48.5L64.8,20.3L26,43.5
			v42.9l39,22.4V78.5c-4-2.6-9-5.2-15-7.8c0-5.2,0-10.4,0-15.6c19,10.2,37,20.4,54,30.6c0-14.5,0-43.7,0-43.7"/>
		<line id="XMLID_16_" fill="none" stroke="#000000" stroke-width="2" stroke-miterlimit="10" x1="74" y1="116" x2="74" y2="68"/>
		<path id="XMLID_11_" fill="none" stroke="#000000" stroke-width="2" stroke-miterlimit="10" d="M83,111V86.3
			c8,4.2,13.7,8.4,20.6,12.5"/>
		<polygon id="XMLID_17_" fill="none" stroke="#000000" stroke-width="2" stroke-miterlimit="10" points="14,35.5 64,6.7 114,35.5 
			114,93 64,121.8 14,93 		"/>
	</g>
</g>
</svg>
