<svg width="480" height="480" xmlns="http://www.w3.org/2000/svg">
 <!-- Created with SVG-edit - http://svg-edit.googlecode.com/ -->
 <defs>
  <linearGradient y2="1" x2="1" y1="0" x1="0" id="svg_5">
   <stop stop-color="#00ffb2" offset="0"/>
   <stop stop-color="#00ff04" offset="1"/>
  </linearGradient>
  <linearGradient y2="1" x2="1" y1="0" x1="0.51172" id="svg_6">
   <stop stop-color="#00ffb2" offset="0"/>
   <stop stop-color="#00ff04" offset="1"/>
  </linearGradient>
  <linearGradient y2="0.00781" x2="0.77344" y1="0.98438" x1="0.53906" id="svg_7">
   <stop stop-color="#00ffb2" offset="0"/>
   <stop stop-color="#00ff04" offset="1"/>
  </linearGradient>
  <linearGradient y2="0.00781" x2="0.77344" y1="0.98438" x1="0.53906" id="svg_8">
   <stop stop-color="#00e9ff" offset="0"/>
   <stop stop-color="#00bbff" offset="1"/>
  </linearGradient>
  <linearGradient y2="0.00781" x2="0.77344" y1="0.98438" x1="0.53906" id="svg_9">
   <stop stop-color="#04ff00" offset="0"/>
   <stop stop-color="#94ff00" offset="1"/>
  </linearGradient>
  <linearGradient y2="0.95703" x2="0.64063" y1="0.06641" x1="0.41406" id="svg_11">
   <stop stop-color="#04ff00" offset="0"/>
   <stop stop-color="#94ff00" offset="1"/>
  </linearGradient>
 </defs>
 <g>
  <title>Layer 1</title>
  <path id="svg_4" d="m6.4021,240.00002c0,-129.05962 104.5383,-233.59792 233.5979,-233.59792c129.05963,0 233.5979,104.53828 233.5979,233.59792c0,129.05962 -104.53827,233.59789 -233.5979,233.59789c-129.0596,0 -233.5979,-104.53827 -233.5979,-233.59789z" stroke-linecap="null" stroke-linejoin="null" stroke-width="5" stroke="#000000" fill="url(#svg_8)"/>
  <rect id="svg_2" height="0" width="1" y="233" x="564" stroke-width="5" stroke="#000000" fill="#FF0000"/>
  <rect id="svg_3" height="1" width="0" y="78" x="105" stroke-width="5" stroke="#000000" fill="#FF0000"/>
  <path id="svg_12" d="m201.166,120.42l0,26.80901l-81.546,33.51199l12.28699,16.757l-4.46799,14.522l-40.215,3.351l-1.117,33.51199l26.81,17.87302l26.81001,-18.99001l15.63899,-23.459l39.097,-12.287l30.161,40.21399l-8.93599,8.937l17.873,5.58502l10.054,-16.75601l-23.459,-43.56599l26.81,-4.468l16.75598,59.20499l16.75601,4.46802l-11.17099,-54.73701l22.34198,-17.87299l31.27802,20.10799l8.936,44.68301l-58.08701,18.98999l16.75601,29.04401l-39.09801,22.341l-62.556,2.23398l-39.09801,6.703l-59.204,-25.69299l-24.576,29.04401l15.639,41.332l36.863,36.86301l29.04401,18.98999l13.405,13.45901l39.522,17.87299c61.68999,5.785 69.37898,2.57101 115.06798,-12.64401l47.069,-25.64398l29.57501,-73.47299l-60.32199,-37.98001l5.586,-10.05402c24.35901,16.99301 53.71799,28.987 67.078,11.98001l66.97,-54.42899l-109.47302,-17.87302l105.97601,-3.351c-5.99399,-39.25099 -3.987,-79.50099 -30.98099,-126.752c-19.53302,-35.1426 -52.06601,-61.2857 -93.60001,-81.4288l-71.12601,41.5342l-35.564,20.7671l-35.563,20.7675l0,0l0,0z" opacity="0.95" stroke-linecap="null" stroke-linejoin="null" stroke-width="0" stroke="#000000" fill="url(#svg_11)"/>
  <path opacity="0.95" transform="rotate(34.20443344116211 124.1361694335938,104.64808654785156) " id="svg_10" d="m108.865,72.2078l13.526,-13.6591l13.09,-0.2627l-8.509,8.6683l12,5.5161l-8.94501,13.3964l11.12601,18.6502l5.01801,11.03201l3.054,6.56699l8.291,2.889l-7.854,11.55801l1.30899,2.101l-34.034,12.34599l8.94501,-21.539l-11.78101,8.14301l-13.745,-7.618l1.963,-6.304l1.746,-1.313l2.182,-4.203l0,-2.89l0.21799,-2.36401l-2.39999,-2.101l-5.236,0l-5.236,-3.677l5.236,-4.729l-8.072,-3.6771l23.562,0.7881l-2.4,-12.3457l-5.672,-2.8895l2.618,-5.51611l0,-6.56689l0,0l0,0z" stroke-linecap="null" stroke-linejoin="null" stroke-width="0" stroke="#000000" fill="url(#svg_11)"/>
 </g>
</svg>