<svg width="480" height="480" xmlns="http://www.w3.org/2000/svg">
 <!-- Created with SVG-edit - http://svg-edit.googlecode.com/ -->
 <defs>
  <linearGradient y2="1" x2="1" y1="0" x1="0" id="svg_5">
   <stop stop-color="#00ffb2" offset="0"/>
   <stop stop-color="#00ff04" offset="1"/>
  </linearGradient>
  <linearGradient y2="1" x2="1" y1="0" x1="0.51172" id="svg_6">
   <stop stop-color="#00ffb2" offset="0"/>
   <stop stop-color="#00ff04" offset="1"/>
  </linearGradient>
  <linearGradient y2="0.00781" x2="0.77344" y1="0.98438" x1="0.53906" id="svg_7">
   <stop stop-color="#00ffb2" offset="0"/>
   <stop stop-color="#00ff04" offset="1"/>
  </linearGradient>
  <linearGradient y2="0.00781" x2="0.77344" y1="0.98438" x1="0.53906" id="svg_8">
   <stop stop-color="#00e9ff" offset="0"/>
   <stop stop-color="#00bbff" offset="1"/>
  </linearGradient>
  <linearGradient y2="0.00781" x2="0.77344" y1="0.98438" x1="0.53906" id="svg_9">
   <stop stop-color="#04ff00" offset="0"/>
   <stop stop-color="#94ff00" offset="1"/>
  </linearGradient>
  <linearGradient y2="0.95703" x2="0.64063" y1="0.06641" x1="0.41406" id="svg_11">
   <stop stop-color="#04ff00" offset="0"/>
   <stop stop-color="#94ff00" offset="1"/>
  </linearGradient>
  <linearGradient y2="0.00781" x2="0.77344" y1="0.98438" x1="0.53906" id="svg_14">
   <stop stop-color="#dbdbdb" offset="0"/>
   <stop stop-color="#ffffff" offset="1"/>
  </linearGradient>
  <linearGradient y2="0.01563" x2="0.26172" y1="0.98438" x1="0.53906" id="svg_24">
   <stop stop-color="#a05000" offset="0"/>
   <stop stop-color="#e29b00" offset="1"/>
  </linearGradient>
  <linearGradient y2="0.01563" x2="0.26172" y1="0.98438" x1="0.53906" id="svg_25">
   <stop stop-color="#8e8e8e" offset="0"/>
   <stop stop-color="#666666" offset="1"/>
  </linearGradient>
  <linearGradient y2="0.01563" x2="0.26172" y1="0.98438" x1="0.53906" id="svg_26">
   <stop stop-color="#aa3a0d" offset="0"/>
   <stop stop-color="#d13b2e" offset="1"/>
  </linearGradient>
  <linearGradient y2="0.01563" x2="0.26172" y1="0.98438" x1="0.53906" id="svg_27">
   <stop stop-color="#aa3a0d" offset="0"/>
   <stop stop-color="#d13b2e" offset="1"/>
  </linearGradient>
 </defs>
 <g>
  <title>Layer 1</title>
  <path id="svg_4" d="m6.4021,240.00002c0,-129.05962 104.5383,-233.59792 233.5979,-233.59792c129.05963,0 233.5979,104.53828 233.5979,233.59792c0,129.05962 -104.53827,233.59789 -233.5979,233.59789c-129.0596,0 -233.5979,-104.53827 -233.5979,-233.59789z" stroke-linecap="null" stroke-linejoin="null" stroke-width="5" stroke="#000000" fill="url(#svg_27)"/>
  <rect id="svg_2" height="0" width="1" y="233" x="564" stroke-width="5" stroke="#000000" fill="#FF0000"/>
  <rect id="svg_3" height="1" width="0" y="78" x="105" stroke-width="5" stroke="#000000" fill="#FF0000"/>
  <path id="svg_28" d="m190,110.00001l50,53.33334l20,80l80,0l100,26.66669l-30,-133.33337l-80,-93.33332l-100,-13.33333l-50,53.33332l20,0l-10,26.66668z" opacity="0.95" stroke-linecap="null" stroke-linejoin="null" stroke-width="0" stroke="#000000" fill="url(#svg_27)"/>
  <path id="svg_29" d="m191,50l-40,50l20,10l0,60l-100,10l-30,-40l100,-90l50,0z" opacity="0.95" stroke-linecap="null" stroke-linejoin="null" stroke-width="0" stroke="#000000" fill="url(#svg_27)"/>
  <path id="svg_30" d="m311,260l60,9.5l70,19l-60,123.5l-70,38l-60,-152l60,-38z" opacity="0.95" stroke-linecap="null" stroke-linejoin="null" stroke-width="0" stroke="#000000" fill="url(#svg_27)"/>
 </g>
</svg>
