<svg width="480" height="480" xmlns="http://www.w3.org/2000/svg" xmlns:svg="http://www.w3.org/2000/svg">
 <!-- Created with SVG-edit - http://svg-edit.googlecode.com/ -->
 <defs>
  <linearGradient id="svg_5" x1="0" y1="0" x2="1" y2="1">
   <stop offset="0" stop-color="#00ffb2"/>
   <stop offset="1" stop-color="#00ff04"/>
  </linearGradient>
  <linearGradient id="svg_6" x1="0.51172" y1="0" x2="1" y2="1">
   <stop offset="0" stop-color="#00ffb2"/>
   <stop offset="1" stop-color="#00ff04"/>
  </linearGradient>
  <linearGradient id="svg_7" x1="0.53906" y1="0.98438" x2="0.77344" y2="0.00781">
   <stop offset="0" stop-color="#00ffb2"/>
   <stop offset="1" stop-color="#00ff04"/>
  </linearGradient>
  <linearGradient id="svg_8" x1="0.53906" y1="0.98438" x2="0.77344" y2="0.00781">
   <stop offset="0" stop-color="#00e9ff"/>
   <stop offset="1" stop-color="#00bbff"/>
  </linearGradient>
  <linearGradient id="svg_9" x1="0.53906" y1="0.98438" x2="0.77344" y2="0.00781">
   <stop offset="0" stop-color="#04ff00"/>
   <stop offset="1" stop-color="#94ff00"/>
  </linearGradient>
  <linearGradient id="svg_11" x1="0.41406" y1="0.06641" x2="0.64063" y2="0.95703">
   <stop offset="0" stop-color="#04ff00"/>
   <stop offset="1" stop-color="#94ff00"/>
  </linearGradient>
  <radialGradient r="0.5" cy="0.5" cx="0.5" id="svg_12">
   <stop stop-color="#ff0000" offset="0"/>
   <stop stop-color="#ff9000" offset="1"/>
  </radialGradient>
  <radialGradient r="0.5" cy="0.5" cx="0.5" id="svg_13">
   <stop stop-color="#ffc700" offset="0"/>
   <stop stop-color="#ff9000" offset="1"/>
  </radialGradient>
  <radialGradient r="0.5" cy="0.5" cx="0.5" id="svg_14">
   <stop stop-color="#ffff00" offset="0"/>
   <stop stop-color="#ff9000" offset="1"/>
  </radialGradient>
  <filter height="200%" width="200%" y="-50%" x="-50%" id="svg_4_blur">
   <feGaussianBlur stdDeviation="9.9" in="SourceGraphic"/>
  </filter>
  <radialGradient r="0.5" cy="0.5" cx="0.5" id="svg_1">
   <stop stop-color="#ffff00" offset="0"/>
   <stop stop-opacity="0.99219" stop-color="#ff5400" offset="1"/>
  </radialGradient>
 </defs>
 <g>
  <title>Layer 1</title>
  <path stroke="#e88b00" filter="url(#svg_4_blur)" stroke-dasharray="2,2" fill="url(#svg_1)" stroke-width="0" stroke-linejoin="null" stroke-linecap="null" d="m22.90204,239.99994c0,-119.94395 97.15395,-217.0979 217.0979,-217.0979c119.94397,0 217.09802,97.15395 217.09802,217.0979c0,119.94394 -97.15405,217.09802 -217.09802,217.09802c-119.94395,0 -217.0979,-97.15408 -217.0979,-217.09802z" id="svg_4"/>
  <rect fill="#FF0000" stroke="#000000" stroke-width="5" x="564" y="233" width="1" height="0" id="svg_2"/>
  <rect fill="#FF0000" stroke="#000000" stroke-width="5" x="105" y="78" width="0" height="1" id="svg_3"/>
 </g>
</svg>